<svg width="590" height="218" viewBox="0 0 590 218" fill="none" xmlns="http://www.w3.org/2000/svg">
<path d="M259.947 55.2866V88.7415H251.357V30.4207L250.001 20.9265H292.729L291.825 28.1602H259.043L259.947 36.7502V48.7359H287.978V55.2856L259.947 55.2866ZM330.255 89.5163C327.542 89.5163 325.047 89.1009 322.769 88.2701C320.492 87.4393 318.426 86.2639 316.57 84.744C314.722 83.2235 313.105 81.4083 311.718 79.2985C310.331 77.1886 309.163 74.8444 308.211 72.2657C307.26 69.687 306.55 66.9274 306.081 63.9867C305.619 61.0532 305.389 58.0024 305.389 54.8345C305.389 51.6729 305.613 48.6219 306.062 45.6812C306.517 42.7413 307.204 39.9816 308.121 37.4023C309.039 34.8307 310.184 32.49 311.557 30.3801C312.93 28.2703 314.534 26.4519 316.369 24.9249C318.211 23.405 320.291 22.2296 322.608 21.3989C324.933 20.5745 327.482 20.1623 330.254 20.1623C332.967 20.1623 335.458 20.5745 337.729 21.3989C340.006 22.2296 342.072 23.405 343.928 24.9249C345.783 26.4519 347.404 28.2703 348.791 30.3801C350.177 32.49 351.343 34.831 352.288 37.4032C353.238 39.9819 353.948 42.7416 354.417 45.6822C354.886 48.6222 355.12 51.6729 355.12 54.8345C355.12 58.0024 354.893 61.0532 354.437 63.9867C353.988 66.9274 353.302 69.687 352.378 72.2657C351.46 74.8444 350.315 77.1886 348.941 79.2985C347.575 81.4083 345.971 83.2235 344.129 84.744C342.293 86.2639 340.214 87.4393 337.89 88.2701C335.572 89.1009 333.028 89.5163 330.255 89.5163ZM345.716 56.241C345.716 54.1312 345.646 51.9743 345.505 49.7705C345.371 47.5737 345.1 45.4272 344.692 43.3309C344.29 41.2346 343.727 39.2587 343.003 37.4032C342.28 35.5549 341.336 33.9439 340.171 32.5701C339.012 31.1971 337.595 30.1055 335.92 29.2953C334.252 28.478 332.273 28.0694 329.983 28.0694C327.813 28.0694 325.927 28.431 324.327 29.1542C322.733 29.8781 321.376 30.866 320.258 32.118C319.146 33.3707 318.228 34.831 317.505 36.499C316.781 38.1735 316.222 39.9449 315.827 41.8132C315.438 43.6822 315.167 45.5982 315.013 47.5611C314.866 49.5164 314.792 51.415 314.792 53.2569C314.792 55.3938 314.859 57.5771 314.993 59.8067C315.127 62.0376 315.398 64.2015 315.807 66.2985C316.216 68.3941 316.781 70.3665 317.505 72.2155C318.228 74.0703 319.176 75.6909 320.348 77.0775C321.526 78.4641 322.943 79.5661 324.598 80.3833C326.26 81.1935 328.236 81.5986 330.526 81.5986C332.662 81.5986 334.521 81.2302 336.102 80.4935C337.689 79.7567 339.045 78.7456 340.171 77.4601C341.302 76.1804 342.23 74.7033 342.953 73.0289C343.677 71.3608 344.243 69.5827 344.651 67.6944C345.06 65.8119 345.337 63.8927 345.485 61.9368C345.64 59.9744 345.716 58.0759 345.716 56.241ZM389.028 89.5163C386.316 89.5163 383.821 89.1009 381.543 88.2701C379.266 87.4393 377.2 86.2639 375.344 84.744C373.496 83.2235 371.878 81.4083 370.492 79.2985C369.105 77.1886 367.936 74.8444 366.985 72.2657C366.034 69.687 365.324 66.9274 364.855 63.9867C364.393 61.0532 364.162 58.0024 364.162 54.8345C364.162 51.6729 364.387 48.6219 364.836 45.6812C365.291 42.7413 365.978 39.9816 366.895 37.4023C367.812 34.8307 368.957 32.49 370.331 30.3801C371.704 28.2703 373.308 26.4519 375.143 24.9249C376.985 23.405 379.065 22.2296 381.382 21.3989C383.707 20.5745 386.256 20.1623 389.028 20.1623C391.741 20.1623 394.232 20.5745 396.503 21.3989C398.78 22.2296 400.846 23.405 402.702 24.9249C404.557 26.4519 406.178 28.2703 407.565 30.3801C408.951 32.49 410.117 34.831 411.062 37.4032C412.012 39.9819 412.722 42.7416 413.191 45.6822C413.66 48.6222 413.894 51.6729 413.894 54.8345C413.894 58.0024 413.666 61.0532 413.211 63.9867C412.762 66.9274 412.076 69.687 411.152 72.2657C410.234 74.8444 409.088 77.1886 407.715 79.2985C406.349 81.4083 404.744 83.2235 402.903 84.744C401.067 86.2639 398.988 87.4393 396.664 88.2701C394.346 89.1009 391.801 89.5163 389.028 89.5163ZM404.49 56.241C404.49 54.1312 404.419 51.9743 404.279 49.7705C404.145 47.5737 403.874 45.4272 403.466 43.3309C403.064 41.2346 402.501 39.2587 401.777 37.4032C401.054 35.5549 400.11 33.9439 398.945 32.5701C397.785 31.1971 396.369 30.1055 394.694 29.2953C393.026 28.478 391.047 28.0694 388.757 28.0694C386.586 28.0694 384.701 28.431 383.101 29.1542C381.507 29.8781 380.15 30.866 379.032 32.118C377.919 33.3707 377.002 34.831 376.278 36.499C375.555 38.1735 374.996 39.9449 374.6 41.8132C374.212 43.6822 373.941 45.5982 373.787 47.5611C373.64 49.5164 373.566 51.415 373.566 53.2569C373.566 55.3938 373.633 57.5771 373.767 59.8067C373.901 62.0376 374.172 64.2015 374.581 66.2985C374.989 68.3941 375.555 70.3665 376.278 72.2155C377.002 74.0703 377.949 75.6909 379.121 77.0775C380.3 78.4641 381.717 79.5661 383.372 80.3833C385.034 81.1935 387.01 81.5986 389.3 81.5986C391.436 81.5986 393.295 81.2302 394.876 80.4935C396.463 79.7567 397.819 78.7456 398.945 77.4601C400.076 76.1804 401.004 74.7033 401.727 73.0289C402.451 71.3608 403.017 69.5827 403.425 67.6944C403.833 65.8119 404.111 63.8927 404.259 61.9368C404.413 59.9744 404.49 58.0759 404.49 56.241ZM427.689 30.4304L426.333 20.9361C427.271 20.8492 428.342 20.7754 429.548 20.7149C430.753 20.6544 431.989 20.6009 433.255 20.5545C434.52 20.5082 435.769 20.4779 437.003 20.4637C438.241 20.4508 439.356 20.4444 440.348 20.4444C445.144 20.4444 449.581 21.0305 453.66 22.2026C457.746 23.3812 461.282 25.2495 464.269 27.8076C467.25 30.3734 469.584 33.6589 471.273 37.6641C472.96 41.6764 473.804 46.4988 473.804 52.1315C473.804 56.5321 473.382 60.4871 472.539 63.9964C471.695 67.5128 470.526 70.6273 469.032 73.3399C467.545 76.0526 465.753 78.3801 463.657 80.3225C461.56 82.2649 459.253 83.8624 456.734 85.115C454.222 86.3676 451.55 87.2854 448.716 87.8682C445.884 88.4575 442.96 88.7521 439.946 88.7521H427.689V30.4304ZM435.154 27.7177L436.279 36.7599V81.5184H437.183C441.075 81.5184 444.45 81.0663 447.31 80.1621C450.177 79.2579 452.611 78.059 454.614 76.5655C456.617 75.0778 458.251 73.3596 459.517 71.4107C460.783 69.4684 461.771 67.459 462.481 65.3827C463.191 63.2999 463.673 61.2338 463.927 59.1845C464.182 57.1346 464.31 55.2357 464.31 53.4878C464.31 50.9291 464.189 48.5043 463.948 46.2135C463.707 43.9227 463.255 41.8129 462.591 39.884C461.928 37.9552 461.024 36.2205 459.879 34.68C458.734 33.1459 457.257 31.8366 455.448 30.7521C453.64 29.6675 451.463 28.8303 448.918 28.2403C446.373 27.6504 443.382 27.3555 439.946 27.3555C439.463 27.3555 438.951 27.3722 438.408 27.4057C437.866 27.4327 437.354 27.4765 436.872 27.5371L435.154 27.7177ZM507.068 56.8738L508.424 46.4753L521.446 20.9265H530.125L510.464 59.5362V88.7425H500.97V59.5864L481.258 20.9255L490.481 20.0222L503.501 45.6117L507.068 56.8738Z" fill="#FF2149"/>
<path d="M187.794 3.82156V214.177Z" fill="#FF2149"/>
<path d="M187.794 3.82156V214.177" stroke="#FF2149" stroke-width="4.63699"/>
<path fill-rule="evenodd" clip-rule="evenodd" d="M142.794 52.9884C145.454 50.6013 145.181 48.1804 142.282 45.7585C127.483 48.5552 34.9321 85.3159 32.886 92.4434C69.3743 79.2453 106.17 66.1845 142.794 52.9884ZM116.912 23.8313C115.275 12.6803 103.101 25.605 94.3368 30.9588C85.3333 37.9152 77.8658 42.9956 68.6247 49.9531C59.8607 56.6709 23.2015 82.2806 21.1902 90.1587L116.912 23.8313ZM56.0749 106.766C65.4532 103.082 64.1915 90.1587 81.8218 96.7403C83.4582 99.3998 81.8218 101.684 79.6733 104.345C90.6881 100.048 97.5421 94.5918 105.795 108.778C112.273 106.63 125.3 111.949 126.323 108.539C120.815 105.222 114.509 103.465 108.08 103.457L100.235 96.3645C96.1611 95.0958 91.7793 95.2281 87.789 96.7403C83.4582 93.9436 81.1735 90.7721 73.8075 90.7721C66.6124 90.7721 64.3277 93.9436 60.167 96.7403C48.9822 96.7403 47.9591 96.8755 39.7063 104.345C34.3863 105.879 28.9639 107.243 23.6101 108.778C23.8835 109.528 23.9869 110.312 24.2583 110.926C30.2375 110.063 36.1937 109.176 42.1271 108.266C44.2756 100.184 60.7814 95.3415 56.1087 106.766M10.6854 113.347C9.93579 142.776 28.6925 170.295 48.4702 180.935H106.17C106.306 180.526 126.597 163.407 131.507 154.54C138.138 141.808 141.7 127.701 141.908 113.347H10.6854Z" fill="#FF2149"/>
<path d="M273.272 156.874C273.272 158.743 272.806 160.337 271.875 161.656C270.95 162.97 269.651 163.972 267.977 164.661C266.309 165.357 264.346 165.706 262.089 165.706C260.897 165.706 259.769 165.646 258.704 165.525C257.638 165.411 256.657 165.247 255.759 165.033C254.868 164.818 254.085 164.55 253.409 164.229V160.712C254.487 161.161 255.803 161.577 257.357 161.959C258.911 162.341 260.539 162.531 262.239 162.531C263.82 162.531 265.16 162.317 266.258 161.888C267.35 161.466 268.181 160.857 268.75 160.059C269.32 159.262 269.604 158.301 269.604 157.176C269.604 156.098 269.367 155.193 268.891 154.463C268.415 153.74 267.625 153.08 266.52 152.485C265.421 151.882 263.921 151.246 262.018 150.576C260.686 150.1 259.507 149.577 258.482 149.008C257.465 148.439 256.607 147.792 255.91 147.069C255.221 146.352 254.702 145.518 254.353 144.567C253.998 143.616 253.821 142.531 253.821 141.311C253.821 139.624 254.25 138.181 255.106 136.982C255.964 135.783 257.15 134.862 258.663 134.219C260.183 133.576 261.928 133.255 263.897 133.255C265.585 133.255 267.146 133.416 268.579 133.738C270.006 134.052 271.319 134.474 272.518 135.003L271.372 138.157C270.234 137.682 269.028 137.287 267.755 136.972C266.483 136.657 265.17 136.5 263.817 136.5C262.464 136.5 261.322 136.697 260.391 137.093C259.467 137.488 258.76 138.043 258.271 138.76C257.782 139.483 257.538 140.341 257.538 141.333C257.538 142.438 257.769 143.359 258.231 144.096C258.7 144.832 259.45 145.482 260.482 146.044C261.506 146.613 262.869 147.209 264.57 147.832C266.426 148.508 268.004 149.222 269.304 149.973C270.596 150.73 271.58 151.651 272.256 152.736C272.932 153.827 273.272 155.207 273.272 156.874ZM288.022 141.222C290.841 141.222 292.934 141.855 294.301 143.121C295.673 144.386 296.359 146.409 296.359 149.189V165.273H293.747L293.054 161.778H292.883C292.22 162.635 291.526 163.355 290.803 163.938C290.086 164.52 289.256 164.962 288.312 165.263C287.368 165.558 286.212 165.706 284.846 165.706C283.412 165.706 282.136 165.452 281.018 164.943C279.906 164.44 279.028 163.68 278.386 162.662C277.742 161.637 277.421 160.341 277.421 158.774C277.421 156.416 278.358 154.605 280.234 153.339C282.103 152.066 284.949 151.373 288.774 151.259L292.853 151.088V149.641C292.853 147.598 292.414 146.168 291.536 145.351C290.659 144.527 289.424 144.115 287.83 144.115C286.591 144.115 285.412 144.296 284.294 144.658C283.168 145.02 282.103 145.445 281.098 145.933L279.993 143.211C281.058 142.662 282.28 142.193 283.66 141.804C285.04 141.416 286.493 141.222 288.02 141.222M292.813 155.79V153.609L289.206 153.76C286.259 153.881 284.179 154.363 282.967 155.207C281.761 156.057 281.158 157.259 281.158 158.814C281.158 160.167 281.567 161.168 282.385 161.819C283.21 162.468 284.298 162.792 285.65 162.792C287.753 162.792 289.471 162.209 290.803 161.044C292.143 159.872 292.813 158.12 292.813 155.79ZM313.026 165.274H308.927L299.946 141.614H303.794L308.988 155.921C309.349 156.899 309.718 157.98 310.093 159.166C310.468 160.344 310.726 161.292 310.866 162.009H311.017C311.191 161.292 311.479 160.341 311.881 159.155C312.29 157.963 312.658 156.885 312.986 155.92L318.19 141.613H322.029L313.026 165.274ZM346.211 153.399C346.211 155.341 345.96 157.076 345.458 158.603C344.956 160.123 344.229 161.409 343.278 162.461C342.327 163.513 341.182 164.316 339.842 164.872C338.496 165.428 336.973 165.706 335.271 165.706C333.69 165.706 332.24 165.428 330.92 164.872C329.607 164.316 328.472 163.513 327.515 162.461C326.557 161.409 325.813 160.123 325.284 158.603C324.762 157.076 324.502 155.341 324.502 153.399C324.502 150.806 324.94 148.599 325.816 146.777C326.694 144.962 327.95 143.576 329.584 142.619C331.218 141.661 333.164 141.182 335.422 141.182C337.578 141.182 339.467 141.664 341.088 142.628C342.709 143.592 343.968 144.986 344.865 146.808C345.763 148.623 346.211 150.82 346.211 153.399ZM328.218 153.399C328.218 155.301 328.469 156.949 328.971 158.342C329.474 159.735 330.251 160.813 331.303 161.577C332.354 162.34 333.706 162.722 335.361 162.722C337.002 162.722 338.351 162.34 339.409 161.577C340.461 160.813 341.242 159.734 341.751 158.341C342.254 156.948 342.505 155.301 342.505 153.399C342.505 151.517 342.254 149.886 341.751 148.506C341.242 147.133 340.465 146.071 339.42 145.321C338.369 144.577 337.009 144.206 335.341 144.206C332.876 144.206 331.071 145.019 329.926 146.647C328.787 148.268 328.218 150.518 328.218 153.399ZM363.15 141.182C363.625 141.182 364.121 141.205 364.638 141.252C365.159 141.306 365.621 141.376 366.023 141.463L365.571 144.788C365.183 144.688 364.751 144.607 364.276 144.547C363.8 144.493 363.351 144.467 362.929 144.467C361.985 144.467 361.09 144.654 360.246 145.03C359.402 145.412 358.666 145.961 358.036 146.677C357.399 147.387 356.9 148.241 356.538 149.239C356.184 150.243 356.007 151.355 356.007 152.575V165.274H352.4V141.613H355.373L355.766 145.973H355.916C356.406 145.095 356.995 144.292 357.684 143.561C358.374 142.838 359.178 142.259 360.095 141.823C361.007 141.395 362.025 141.182 363.15 141.182ZM400.072 162.029V165.274H382.501V133.716H400.073V136.953H386.168V147.16H399.269V150.355H386.168V162.029H400.072ZM415.826 165.274H411.727L402.745 141.614H406.593L411.787 155.921C412.149 156.899 412.518 157.98 412.892 159.166C413.267 160.344 413.525 161.292 413.665 162.009H413.817C413.991 161.292 414.279 160.341 414.68 159.155C415.082 157.963 415.451 156.885 415.786 155.92L420.99 141.613H424.828L415.826 165.274ZM437.707 141.182C439.716 141.182 441.441 141.627 442.881 142.518C444.321 143.409 445.423 144.658 446.187 146.265C446.951 147.866 447.333 149.742 447.333 151.892V154.111H430.985C431.032 156.891 431.726 159.008 433.065 160.461C434.405 161.908 436.29 162.632 438.721 162.632C440.216 162.632 441.538 162.498 442.69 162.23C443.843 161.955 445.038 161.55 446.277 161.014V164.169C445.078 164.705 443.892 165.093 442.72 165.334C441.548 165.582 440.165 165.706 438.571 165.706C436.293 165.706 434.311 165.24 432.623 164.309C430.929 163.378 429.616 162.016 428.684 160.221C427.747 158.419 427.278 156.215 427.278 153.609C427.278 151.064 427.706 148.86 428.563 146.999C429.421 145.137 430.63 143.7 432.191 142.689C433.751 141.684 435.59 141.182 437.707 141.182ZM437.656 144.115C435.747 144.115 434.223 144.741 433.084 145.994C431.946 147.246 431.27 148.995 431.056 151.238H443.574C443.561 149.832 443.34 148.593 442.911 147.521C442.489 146.443 441.846 145.606 440.982 145.009C440.118 144.413 439.01 144.115 437.656 144.115ZM464.17 141.182C464.645 141.182 465.141 141.205 465.657 141.252C466.173 141.306 466.631 141.376 467.033 141.463L466.581 144.788C466.193 144.688 465.76 144.607 465.285 144.547C464.809 144.493 464.364 144.467 463.948 144.467C462.997 144.467 462.103 144.654 461.266 145.03C460.422 145.412 459.682 145.961 459.046 146.677C458.416 147.387 457.92 148.241 457.558 149.239C457.197 150.243 457.017 151.355 457.017 152.575V165.274H453.42V141.613H456.393L456.785 145.973H456.936C457.426 145.095 458.015 144.292 458.704 143.561C459.394 142.838 460.198 142.259 461.115 141.823C462.026 141.395 463.045 141.182 464.17 141.182ZM477.233 165.314L467.758 141.614H471.606L476.831 155.337C477.132 156.148 477.41 156.922 477.664 157.659C477.925 158.402 478.156 159.112 478.357 159.788C478.558 160.464 478.716 161.117 478.83 161.747H478.98C479.188 161.031 479.476 160.087 479.845 158.915C480.22 157.743 480.625 156.543 481.06 155.317L486.003 141.614H489.861L479.563 168.75C479.02 170.197 478.384 171.463 477.654 172.547C476.93 173.626 476.05 174.457 475.012 175.04C473.973 175.622 472.721 175.913 471.254 175.913C470.577 175.913 469.982 175.873 469.467 175.793C468.951 175.713 468.506 175.623 468.129 175.522V172.648C468.445 172.722 468.83 172.789 469.285 172.849C469.734 172.903 470.203 172.93 470.692 172.93C471.589 172.93 472.363 172.763 473.013 172.428C473.67 172.086 474.236 171.594 474.71 170.95C475.187 170.3 475.599 169.53 475.947 168.64L477.233 165.314ZM505.654 165.274V133.716H514.585C518.531 133.716 521.498 134.306 523.488 135.484C525.47 136.664 526.461 138.67 526.461 141.503C526.461 142.729 526.227 143.828 525.758 144.799C525.289 145.77 524.609 146.57 523.719 147.199C522.828 147.836 521.726 148.275 520.413 148.516V148.736C521.799 148.951 523.025 149.346 524.09 149.923C525.155 150.499 525.989 151.305 526.592 152.344C527.195 153.375 527.496 154.691 527.496 156.292C527.496 158.234 527.047 159.875 526.15 161.215C525.253 162.554 523.983 163.566 522.342 164.249C520.7 164.932 518.758 165.274 516.515 165.273L505.654 165.274ZM509.321 136.842V147.25H515.369C518.115 147.25 520.018 146.794 521.076 145.884C522.134 144.98 522.663 143.657 522.663 141.915C522.663 140.113 522.034 138.817 520.775 138.027C519.516 137.237 517.513 136.842 514.766 136.842H509.321ZM515.56 150.334H509.321V162.139H515.881C518.688 162.139 520.674 161.59 521.839 160.491C523.005 159.386 523.588 157.899 523.588 156.031C523.588 154.839 523.327 153.817 522.804 152.967C522.275 152.116 521.425 151.466 520.253 151.017C519.081 150.562 517.517 150.334 515.56 150.334ZM533.674 141.614H537.252V165.274H533.674V141.614ZM535.503 132.762C536.092 132.762 536.601 132.953 537.029 133.335C537.452 133.717 537.663 134.31 537.663 135.113C537.663 135.904 537.452 136.493 537.03 136.881C536.601 137.27 536.093 137.465 535.504 137.465C534.887 137.465 534.374 137.27 533.966 136.881C533.551 136.493 533.343 135.904 533.343 135.113C533.343 134.31 533.551 133.717 533.966 133.336C534.374 132.953 534.887 132.762 535.503 132.762ZM552.473 162.762C553.062 162.762 553.665 162.712 554.281 162.612C554.904 162.511 555.409 162.39 555.798 162.249V165.033C555.376 165.22 554.796 165.377 554.059 165.505C553.316 165.639 552.592 165.706 551.889 165.706C550.637 165.706 549.498 165.485 548.473 165.043C547.456 164.608 546.642 163.864 546.032 162.812C545.416 161.761 545.107 160.307 545.107 158.452V144.416H541.742V142.668L545.128 141.272L546.555 136.128H548.715V141.614H555.647V144.416H548.715V158.342C548.715 159.822 549.056 160.93 549.739 161.667C550.423 162.397 551.334 162.762 552.473 162.762ZM569.692 141.181C571.708 141.181 573.436 141.627 574.877 142.518C576.318 143.409 577.419 144.658 578.182 146.265C578.946 147.866 579.328 149.742 579.328 151.892V154.111H562.982C563.028 156.891 563.718 159.008 565.05 160.461C566.39 161.908 568.276 162.632 570.708 162.632C572.208 162.632 573.534 162.498 574.686 162.23C575.831 161.955 577.023 161.55 578.262 161.014V164.169C577.07 164.705 575.889 165.093 574.717 165.334C573.545 165.582 572.158 165.706 570.557 165.706C568.286 165.706 566.303 165.24 564.609 164.309C562.922 163.378 561.609 162.016 560.67 160.221C559.739 158.419 559.273 156.215 559.273 153.609C559.273 151.064 559.699 148.86 560.55 146.999C561.407 145.137 562.616 143.7 564.177 142.689C565.738 141.684 567.576 141.182 569.693 141.182M569.653 144.115C567.737 144.115 566.213 144.741 565.081 145.994C563.943 147.246 563.266 148.995 563.053 151.238H575.57C575.557 149.832 575.336 148.593 574.907 147.521C574.485 146.443 573.842 145.606 572.978 145.009C572.113 144.413 571.005 144.115 569.653 144.115Z" fill="#FF2149"/>
</svg>
